<svg width="32" height="32" fill="#000" viewBox="0 0 32 32" xmlns="http://www.w3.org/2000/svg">
<path d="M14.4357 0.0376054C11.3371 0.3657 8.39668 1.57296 5.96081 3.51719C4.97105 4.35661 4.06415 5.2892 3.25259 6.30212C1.60527 8.49022 0.534189 11.0576 0.137826 13.7682C-0.00589069 14.9621 -0.0373012 16.1669 0.0440082 17.3667C0.365628 20.978 1.89726 24.3747 4.39042 27.0056C6.88358 29.6366 10.192 31.3475 13.779 31.8608C14.6984 31.9985 16.4559 32.0423 17.3754 31.9547C20.9845 31.6329 24.3792 30.1003 27.0086 27.6057C29.638 25.1111 31.3479 21.8007 31.8609 18.2116C31.9985 17.2916 32.0423 15.533 31.9547 14.6131C31.6788 11.4408 30.4637 8.42302 28.4647 5.9454C27.6258 4.95505 26.6937 4.04761 25.6814 3.23557C23.4934 1.58938 20.9281 0.517895 18.2197 0.118963C16.9623 -0.00488494 15.6973 -0.0320838 14.4357 0.0376054V0.0376054ZM20.1274 14.7445L24.0677 21.6536L16.1745 21.6724C11.8338 21.6786 8.275 21.6724 8.26249 21.6599C8.24998 21.6474 10.0138 18.5182 12.1903 14.7132C13.5007 12.4045 14.8246 10.1035 16.162 7.81035L20.1274 14.7445Z"/>
</svg>