<svg width="32" height="32" fill="none" xmlns="http://www.w3.org/2000/svg">
  <path d="M14.436.038a16.344 16.344 0 00-8.475 3.48c-.99.839-1.897 1.771-2.708 2.784a16.345 16.345 0 00-3.115 7.466 19.23 19.23 0 00-.094 3.599 16.088 16.088 0 004.346 9.639 16.07 16.07 0 009.389 4.855c.92.137 2.677.181 3.596.094a16.07 16.07 0 009.634-4.35 16.087 16.087 0 004.852-9.393c.137-.92.181-2.679.094-3.599a16.013 16.013 0 00-3.49-8.668 20.27 20.27 0 00-2.784-2.71A16.382 16.382 0 0018.22.12a24.703 24.703 0 00-3.784-.081zm5.691 14.707l3.94 6.909-7.893.018c-4.34.007-7.899 0-7.912-.012-.012-.013 1.752-3.142 3.928-6.947a678.53 678.53 0 013.972-6.903l3.965 6.935z" fill="#000"/>
  <path d="M20.127 14.745l3.94 6.909-7.893.018c-4.34.007-7.899 0-7.912-.012-.012-.013 1.752-3.142 3.928-6.947 1.31-2.309 2.635-4.61 3.972-6.903l3.965 6.935z" fill="#fff"/>
</svg>
